# This file uses centimeters as units for non-parametric coordinates.

g default
v 0.814568 0.007170 -0.591818
v 0.311137 0.007170 -0.957582
v -0.311137 0.007170 -0.957582
v -0.814568 0.007170 -0.591818
v -1.006861 0.007170 0.000000
v -0.814568 0.007170 0.591818
v -0.311137 0.007170 0.957582
v 0.311137 0.007170 0.957582
v 0.814568 0.007170 0.591818
v 1.006861 0.007170 0.000000
v 1.065864 -0.001087 -0.774395
v 0.407124 -0.001087 -1.252998
v -0.407124 -0.001087 -1.252998
v -1.065864 -0.001087 -0.774395
v -1.317480 -0.001087 0.000000
v -1.065864 -0.001087 0.774395
v -0.407124 -0.001087 1.252998
v 0.407124 -0.001087 1.252998
v 1.065864 -0.001087 0.774395
v 1.317480 -0.001087 0.000000
v 1.065864 0.129373 -0.774395
v 0.407124 0.129373 -1.252998
v -0.407124 0.129373 -1.252998
v -1.065864 0.129373 -0.774395
v -1.317480 0.129373 0.000000
v -1.065864 0.129373 0.774395
v -0.407124 0.129373 1.252998
v 0.407124 0.129373 1.252998
v 1.065864 0.129373 0.774395
v 1.317480 0.129373 0.000000
v 0.930935 0.178088 -0.676364
v 0.355585 0.178088 -1.094380
v -0.355586 0.178088 -1.094379
v -0.930935 0.178088 -0.676364
v -1.150699 0.178088 0.000000
v -0.930935 0.178088 0.676364
v -0.355585 0.178088 1.094379
v 0.355585 0.178088 1.094379
v 0.930935 0.178088 0.676364
v 1.150699 0.178088 -0.000000
v 0.814568 0.178088 -0.591818
v 0.311137 0.178088 -0.957582
v -0.311137 0.178088 -0.957582
v -0.814568 0.178088 -0.591818
v -1.006861 0.178088 0.000000
v -0.814568 0.178088 0.591818
v -0.311137 0.178088 0.957582
v 0.311137 0.178088 0.957582
v 0.814568 0.178088 0.591818
v 1.006861 0.178088 0.000000
v 0.000000 0.007170 0.000000
v 0.000000 0.178089 0.000000
v 0.930935 0.282379 -0.676364
v 0.355585 0.282379 -1.094380
v 0.311137 0.282379 -0.957582
v 0.814568 0.282379 -0.591818
v -0.355586 0.282379 -1.094379
v -0.311137 0.282379 -0.957582
v -0.930935 0.282379 -0.676364
v -0.814568 0.282379 -0.591818
v -1.150699 0.282379 0.000000
v -1.006861 0.282379 0.000000
v -0.930935 0.282379 0.676364
v -0.814568 0.282379 0.591818
v -0.355585 0.282379 1.094379
v -0.311137 0.282379 0.957582
v 0.355585 0.282379 1.094379
v 0.311137 0.282379 0.957582
v 0.930935 0.282379 0.676364
v 0.814568 0.282379 0.591818
v 1.150699 0.282379 -0.000000
v 1.006861 0.282379 0.000000
vt 0.402876 0.483205
vt 0.437589 0.589918
vt 0.350872 0.826746
vt 0.312075 0.417271
vt 0.199860 0.417297
vt 0.109089 0.483273
vt 0.532454 0.826765
vt 0.497785 0.720037
vt 0.407010 0.654066
vt 0.294796 0.654046
vt 0.203998 0.719985
vt 0.307525 0.837579
vt 0.160687 0.837598
vt 0.454363 0.837559
vt 0.601201 0.837540
vt 0.748039 0.837521
vt 0.930198 0.009769
vt 0.930217 0.156607
vt 0.930236 0.303445
vt 0.930256 0.450283
vt 0.930275 0.597121
vt 0.062336 0.326973
vt 0.009766 0.464078
vt 0.183332 0.243779
vt 0.330170 0.243774
vt 0.451172 0.326960
vt 0.503750 0.011704
vt 0.451603 0.148970
vt 0.330865 0.232539
vt 0.184028 0.232998
vt 0.062770 0.150187
vt 0.448484 0.871894
vt 0.320234 0.871885
vt 0.576733 0.871903
vt 0.704983 0.871912
vt 0.833232 0.871921
vt 0.960052 0.009772
vt 0.960036 0.138021
vt 0.960021 0.266271
vt 0.960006 0.394520
vt 0.959990 0.522770
vt 0.462531 0.278310
vt 0.448483 0.890701
vt 0.479281 0.179442
vt 0.009771 0.920454
vt 0.576732 0.890710
vt 0.569606 0.112851
vt 0.704981 0.890720
vt 0.681821 0.112069
vt 0.833231 0.890729
vt 0.773066 0.177395
vt 0.941245 0.009769
vt 0.851616 0.278223
vt 0.941229 0.138019
vt 0.816962 0.384957
vt 0.941214 0.266268
vt 0.726190 0.450937
vt 0.941199 0.394518
vt 0.613972 0.450962
vt 0.941183 0.522767
vt 0.523171 0.385022
vt 0.251707 0.009789
vt 0.009766 0.901647
vt 0.990174 0.458645
vt 0.990189 0.346427
vt 0.990204 0.234208
vt 0.990219 0.121990
vt 0.990234 0.009772
vt 0.458639 0.901522
vt 0.346421 0.901553
vt 0.234202 0.901585
vt 0.121984 0.901616
vt 0.121989 0.920423
vt 0.971352 0.570861
vt 0.445348 0.286407
vt 0.488470 0.278304
vt 0.502189 0.400274
vt 0.419410 0.286588
vt 0.320233 0.890692
vt 0.941168 0.651017
vt 0.234208 0.920392
vt 0.605962 0.475633
vt 0.346426 0.920361
vt 0.734211 0.475605
vt 0.458644 0.920329
vt 0.837951 0.400198
vt 0.808486 0.283876
vt 0.971427 0.009769
vt 0.570863 0.920298
vt 0.961480 0.890738
vt 0.834424 0.283696
vt 0.877555 0.278217
vt 0.971412 0.121988
vt 0.894669 0.659098
vt 0.433280 0.009769
vt 0.570857 0.901491
vt 0.793944 0.162002
vt 0.472476 0.009766
vt 0.472485 0.466098
vt 0.961482 0.871931
vt 0.971397 0.234206
vt 0.689665 0.087344
vt 0.971382 0.346424
vt 0.561419 0.088238
vt 0.971367 0.458643
vt 0.458190 0.164342
vt 0.070134 0.009808
vt 0.531523 0.659086
vt 0.990159 0.570863
vt 0.041033 0.466113
vt 0.041026 0.011116
vt 0.959975 0.651019
vt 0.713096 0.659092
vt 0.906671 0.009772
vt 0.894880 0.861028
vt 0.503752 0.464061
vt 0.160690 0.861125
vt 0.906767 0.743962
vt 0.009766 0.013249
vt 0.588490 0.826760
vt 0.018390 0.590000
vt 0.894877 0.837501
vt 0.493625 0.589891
vt 0.113255 0.826675
vt 0.930294 0.743959
vt 0.074425 0.590002
vt 0.169290 0.826700
vt 0.256007 0.589974
vt 0.104823 0.116530
vt 0.195617 0.182481
vt 0.307835 0.182469
vt 0.398614 0.116499
vt 0.859995 0.552371
vt 0.769211 0.486408
vt 0.656993 0.486404
vt 0.566204 0.552361
vt 0.087321 0.130718
vt 0.193229 0.203046
vt 0.321478 0.202645
vt 0.426931 0.129656
vt 0.426561 0.346353
vt 0.320877 0.273697
vt 0.192627 0.273702
vt 0.086949 0.346365
vt 0.906748 0.597124
vt 0.906729 0.450286
vt 0.906710 0.303448
vt 0.906691 0.156610
vt 0.748042 0.861047
vt 0.601204 0.861067
vt 0.454366 0.861086
vt 0.307528 0.861105
vt 0.158673 0.687036
vt 0.277490 0.600750
vt 0.424333 0.600775
vt 0.543121 0.687103
vt 0.063751 0.450342
vt 0.182533 0.364007
vt 0.329376 0.363973
vt 0.448199 0.450252
vn -0.000000 -1.000000 -0.000000
vn -0.004222 -0.999907 0.012994
vn -0.011053 -0.999907 0.008031
vn 0.004222 -0.999907 0.012994
vn 0.011053 -0.999907 0.008031
vn 0.013663 -0.999907 -0.000000
vn 0.011053 -0.999907 -0.008031
vn 0.004222 -0.999907 -0.012994
vn -0.004222 -0.999907 -0.012994
vn -0.011053 -0.999907 -0.008031
vn -0.013663 -0.999907 -0.000000
vn -0.008212 -0.999647 0.025274
vn -0.021500 -0.999647 0.015620
vn 0.008212 -0.999647 0.025274
vn 0.021500 -0.999647 0.015620
vn 0.026575 -0.999647 -0.000000
vn 0.021500 -0.999647 -0.015620
vn 0.008212 -0.999647 -0.025274
vn -0.008212 -0.999647 -0.025274
vn -0.021500 -0.999647 -0.015620
vn -0.026575 -0.999647 -0.000000
vn 0.587785 0.000000 -0.809017
vn 0.456069 0.630843 -0.627725
vn 0.456069 0.630843 -0.627725
vn 0.587785 0.000000 -0.809017
vn -0.000000 0.000000 -1.000000
vn -0.000000 0.630843 -0.775910
vn -0.000000 0.630843 -0.775910
vn -0.000000 0.000000 -1.000000
vn -0.587785 0.000000 -0.809017
vn -0.456069 0.630843 -0.627725
vn -0.456069 0.630843 -0.627725
vn -0.587785 0.000000 -0.809017
vn -0.951057 0.000000 -0.309017
vn -0.737935 0.630843 -0.239770
vn -0.737935 0.630843 -0.239770
vn -0.951057 0.000000 -0.309017
vn -0.951056 0.000000 0.309017
vn -0.737935 0.630843 0.239770
vn -0.737935 0.630843 0.239770
vn -0.951056 0.000000 0.309017
vn -0.587785 0.000000 0.809017
vn -0.456069 0.630843 0.627725
vn -0.456069 0.630843 0.627725
vn -0.587785 0.000000 0.809017
vn 0.000000 0.000000 1.000000
vn 0.000000 0.630843 0.775910
vn 0.000000 0.630843 0.775910
vn 0.000000 0.000000 1.000000
vn 0.587785 0.000000 0.809017
vn 0.456069 0.630843 0.627725
vn 0.456069 0.630843 0.627725
vn 0.587785 0.000000 0.809017
vn 0.951056 0.000000 0.309017
vn 0.737935 0.630843 0.239770
vn 0.737935 0.630843 0.239770
vn 0.951056 0.000000 0.309017
vn 0.951056 0.000000 -0.309017
vn 0.737935 0.630843 -0.239770
vn 0.737935 0.630843 -0.239770
vn 0.951056 0.000000 -0.309017
vn 0.172566 0.955932 -0.237517
vn 0.172566 0.955932 -0.237517
vn -0.000000 0.955932 -0.293587
vn -0.000000 0.955932 -0.293587
vn -0.172566 0.955932 -0.237517
vn -0.172566 0.955932 -0.237517
vn -0.279218 0.955932 -0.090723
vn -0.279218 0.955932 -0.090723
vn -0.279218 0.955932 0.090723
vn -0.279218 0.955932 0.090723
vn -0.172566 0.955932 0.237517
vn -0.172566 0.955932 0.237517
vn 0.000000 0.955932 0.293587
vn 0.000000 0.955932 0.293587
vn 0.172566 0.955932 0.237517
vn 0.172566 0.955932 0.237517
vn 0.279218 0.955932 0.090723
vn 0.279218 0.955932 0.090723
vn 0.279218 0.955932 -0.090723
vn 0.279218 0.955932 -0.090723
vn 0.000001 1.000000 -0.000001
vn 0.000001 1.000000 -0.000002
vn 0.000001 1.000000 -0.000002
vn 0.000001 1.000000 -0.000001
vn -0.000001 1.000000 -0.000002
vn -0.000001 1.000000 -0.000002
vn -0.000001 1.000000 -0.000001
vn -0.000001 1.000000 -0.000001
vn -0.000002 1.000000 -0.000000
vn -0.000002 1.000000 -0.000000
vn -0.000001 1.000000 0.000001
vn -0.000001 1.000000 0.000001
vn -0.000001 1.000000 0.000002
vn -0.000001 1.000000 0.000002
vn 0.000001 1.000000 0.000002
vn 0.000001 1.000000 0.000002
vn 0.000001 1.000000 0.000001
vn 0.000001 1.000000 0.000001
vn 0.000002 1.000000 0.000000
vn 0.000002 1.000000 0.000000
vn 0.000000 1.000000 -0.000000
vn 0.000000 1.000000 -0.000000
vn 0.000000 1.000000 -0.000000
vn -0.000000 1.000000 -0.000000
vn -0.000000 1.000000 -0.000000
vn -0.000000 1.000000 0.000000
vn -0.000000 1.000000 0.000000
vn -0.000000 1.000000 0.000000
vn 0.000000 1.000000 0.000000
vn 0.000000 1.000000 0.000000
vn 0.000000 1.000000 -0.000000
vn 0.587785 0.000000 -0.809017
vn 0.587785 0.000000 -0.809017
vn 0.587785 0.000000 -0.809017
vn 0.587785 0.000000 -0.809017
vn -0.587785 0.000000 0.809017
vn -0.587785 0.000000 0.809017
vn -0.587785 0.000000 0.809017
vn -0.587785 0.000000 0.809017
vn -0.000000 0.000000 -1.000000
vn -0.000000 0.000000 -1.000000
vn -0.000000 0.000000 -1.000000
vn -0.000000 0.000000 -1.000000
vn 0.000000 0.000000 1.000000
vn 0.000000 0.000000 1.000000
vn 0.000000 0.000000 1.000000
vn 0.000000 0.000000 1.000000
vn -0.587785 0.000000 -0.809017
vn -0.587785 0.000000 -0.809017
vn -0.587785 0.000000 -0.809017
vn -0.587785 0.000000 -0.809017
vn 0.587785 0.000000 0.809017
vn 0.587785 0.000000 0.809017
vn 0.587785 0.000000 0.809017
vn 0.587785 0.000000 0.809017
vn -0.951057 0.000000 -0.309017
vn -0.951057 0.000000 -0.309017
vn -0.951057 0.000000 -0.309017
vn -0.951057 0.000000 -0.309017
vn 0.951056 0.000000 0.309017
vn 0.951056 0.000000 0.309017
vn 0.951056 0.000000 0.309017
vn 0.951056 0.000000 0.309017
vn -0.951056 0.000000 0.309017
vn -0.951056 0.000000 0.309017
vn -0.951056 0.000000 0.309017
vn -0.951056 0.000000 0.309017
vn 0.951057 0.000000 -0.309017
vn 0.951057 0.000000 -0.309017
vn 0.951057 0.000000 -0.309017
vn 0.951057 0.000000 -0.309017
vn -0.587785 0.000000 0.809017
vn -0.587785 0.000000 0.809017
vn -0.587785 0.000000 0.809017
vn -0.587785 0.000000 0.809017
vn 0.587785 0.000000 -0.809017
vn 0.587785 0.000000 -0.809017
vn 0.587785 0.000000 -0.809017
vn 0.587785 0.000000 -0.809017
vn 0.000000 0.000000 1.000000
vn 0.000000 0.000000 1.000000
vn 0.000000 0.000000 1.000000
vn 0.000000 0.000000 1.000000
vn -0.000000 0.000000 -1.000000
vn -0.000000 0.000000 -1.000000
vn -0.000000 0.000000 -1.000000
vn -0.000000 0.000000 -1.000000
vn 0.587785 0.000000 0.809017
vn 0.587785 0.000000 0.809017
vn 0.587785 0.000000 0.809017
vn 0.587785 0.000000 0.809017
vn -0.587785 0.000000 -0.809017
vn -0.587785 0.000000 -0.809017
vn -0.587785 0.000000 -0.809017
vn -0.587785 0.000000 -0.809017
vn 0.951056 0.000000 0.309017
vn 0.951056 0.000000 0.309017
vn 0.951056 0.000000 0.309017
vn 0.951056 0.000000 0.309017
vn -0.951057 0.000000 -0.309017
vn -0.951057 0.000000 -0.309017
vn -0.951057 0.000000 -0.309017
vn -0.951057 0.000000 -0.309017
vn 0.951057 0.000000 -0.309017
vn 0.951057 0.000000 -0.309017
vn 0.951057 0.000000 -0.309017
vn 0.951057 0.000000 -0.309017
vn -0.951057 0.000000 0.309017
vn -0.951057 0.000000 0.309017
vn -0.951057 0.000000 0.309017
vn -0.951057 0.000000 0.309017
s 1
g pCylinder138
f 51/128/1 2/1/2 1/2/3
f 51/128/1 3/4/4 2/1/2
f 51/128/1 4/5/5 3/4/4
f 51/128/1 5/6/6 4/5/5
f 51/128/1 6/126/7 5/6/6
f 51/3/1 7/8/8 6/7/7
f 51/3/1 8/9/9 7/8/8
f 51/3/1 9/10/10 8/9/9
f 51/3/1 10/11/11 9/10/10
f 51/3/1 1/127/3 10/11/11
f 1/2/3 2/1/2 12/160/12 11/123/13
f 2/1/2 3/4/4 13/159/14 12/160/12
f 3/4/4 4/5/5 14/158/15 13/159/14
f 4/5/5 5/6/6 15/157/16 14/158/15
f 5/6/6 6/126/7 16/121/17 15/157/16
f 6/7/7 7/8/8 17/156/18 16/120/17
f 7/8/8 8/9/9 18/155/19 17/156/18
f 8/9/9 9/10/10 19/154/20 18/155/19
f 9/10/10 10/11/11 20/153/21 19/154/20
f 10/11/11 1/127/3 11/124/13 20/153/21
s 2
f 12/12/22 22/152/23 21/117/24 11/13/25
s 3
f 13/14/26 23/151/27 22/152/28 12/12/29
s 4
f 14/15/30 24/150/31 23/151/32 13/14/33
s 5
f 15/16/34 25/149/35 24/150/36 14/15/37
s 6
f 16/122/38 26/115/39 25/149/40 15/16/41
s 7
f 17/18/42 27/148/43 26/114/44 16/17/45
s 8
f 18/19/46 28/147/47 27/148/48 17/18/49
s 9
f 19/20/50 29/146/51 28/147/52 18/19/53
s 10
f 20/21/54 30/145/55 29/146/56 19/20/57
s 11
f 11/125/58 21/118/59 30/145/60 20/21/61
s 2
f 21/23/24 22/22/23 32/144/62 31/110/63
s 3
f 22/22/28 23/24/27 33/143/64 32/144/65
s 4
f 23/24/32 24/25/31 34/142/66 33/143/67
s 5
f 24/25/36 25/26/35 35/141/68 34/142/69
s 6
f 25/26/40 26/116/39 36/99/70 35/141/71
s 7
f 26/27/44 27/28/43 37/140/72 36/98/73
s 8
f 27/28/48 28/29/47 38/139/74 37/140/75
s 9
f 28/29/52 29/30/51 39/138/76 38/139/77
s 10
f 29/30/56 30/31/55 40/137/78 39/138/79
s 11
f 30/31/60 21/119/59 31/111/80 40/137/81
s 12
f 53/78/82 54/106/83 55/44/84 56/75/85
f 54/106/83 57/104/86 58/47/87 55/44/84
f 57/104/86 59/102/88 60/49/89 58/47/87
f 59/102/88 61/97/90 62/51/91 60/49/89
f 61/97/90 63/91/92 64/87/93 62/51/91
f 63/92/92 65/86/94 66/55/95 64/53/93
f 65/86/94 67/84/96 68/57/97 66/55/95
f 67/84/96 69/82/98 70/59/99 68/57/97
f 69/82/98 71/77/100 72/61/101 70/59/99
f 71/77/100 53/42/82 56/76/85 72/61/101
s 13
f 42/136/102 52/113/103 41/108/104
f 43/135/105 52/113/103 42/136/102
f 44/134/106 52/113/103 43/135/105
f 45/133/107 52/113/103 44/134/106
f 46/94/108 52/113/103 45/133/107
f 47/132/109 52/62/103 46/95/108
f 48/131/110 52/62/103 47/132/109
f 49/130/111 52/62/103 48/131/110
f 50/129/112 52/62/103 49/130/111
f 41/107/104 52/62/103 50/129/112
s off
f 31/33/113 32/32/114 54/43/115 53/79/116
f 42/64/117 41/109/118 56/74/119 55/105/120
f 32/32/121 33/34/122 57/46/123 54/43/124
f 43/65/125 42/64/126 55/105/127 58/103/128
f 33/34/129 34/35/130 59/48/131 57/46/132
f 44/66/133 43/65/134 58/103/135 60/101/136
f 34/35/137 35/36/138 61/50/139 59/48/140
f 45/67/141 44/66/142 60/101/143 62/93/144
f 35/36/145 36/100/146 63/90/147 61/50/148
f 46/68/149 45/67/150 62/93/151 64/88/152
f 36/37/153 37/38/154 65/54/155 63/52/156
f 47/69/157 46/96/158 64/89/159 66/85/160
f 37/38/161 38/39/162 67/56/163 65/54/164
f 48/70/165 47/69/166 66/85/167 68/83/168
f 38/39/169 39/40/170 69/58/171 67/56/172
f 49/71/173 48/70/174 68/83/175 70/81/176
f 39/40/177 40/41/178 71/60/179 69/58/180
f 50/72/181 49/71/182 70/81/183 72/73/184
f 40/41/185 31/112/186 53/80/187 71/60/188
f 41/63/189 50/72/190 72/73/191 56/45/192
